<mxfile host="app.diagrams.net" modified="2023-05-31T19:15:24.274Z" agent="Mozilla/5.0 (Windows NT 10.0; Win64; x64) AppleWebKit/537.36 (KHTML, like Gecko) Chrome/113.0.0.0 Safari/537.36" etag="N6ACqUX0bPRlW7EeEgTv" version="21.3.5" type="github">
  <diagram name="Página-1" id="r3iIaQqdQAIL8hYeSFrK">
    <mxGraphModel dx="1050" dy="623" grid="1" gridSize="10" guides="1" tooltips="1" connect="1" arrows="1" fold="1" page="1" pageScale="1" pageWidth="827" pageHeight="1169" math="0" shadow="0">
      <root>
        <mxCell id="0" />
        <mxCell id="1" parent="0" />
        <mxCell id="_WlvNIgQAxMGvLq_8ova-14" style="edgeStyle=orthogonalEdgeStyle;rounded=0;orthogonalLoop=1;jettySize=auto;html=1;exitX=0.5;exitY=0.5;exitDx=0;exitDy=0;exitPerimeter=0;entryX=0;entryY=0.5;entryDx=0;entryDy=0;" edge="1" parent="1" source="_WlvNIgQAxMGvLq_8ova-1" target="_WlvNIgQAxMGvLq_8ova-8">
          <mxGeometry relative="1" as="geometry" />
        </mxCell>
        <mxCell id="_WlvNIgQAxMGvLq_8ova-1" value="AnalisisSuelo" style="shape=umlActor;verticalLabelPosition=bottom;verticalAlign=top;html=1;outlineConnect=0;" vertex="1" parent="1">
          <mxGeometry x="80" y="250" width="30" height="60" as="geometry" />
        </mxCell>
        <mxCell id="_WlvNIgQAxMGvLq_8ova-11" style="edgeStyle=orthogonalEdgeStyle;rounded=0;orthogonalLoop=1;jettySize=auto;html=1;entryX=0.5;entryY=1;entryDx=0;entryDy=0;" edge="1" parent="1" source="_WlvNIgQAxMGvLq_8ova-8" target="_WlvNIgQAxMGvLq_8ova-10">
          <mxGeometry relative="1" as="geometry" />
        </mxCell>
        <mxCell id="_WlvNIgQAxMGvLq_8ova-16" style="edgeStyle=orthogonalEdgeStyle;rounded=0;orthogonalLoop=1;jettySize=auto;html=1;exitX=1;exitY=0.5;exitDx=0;exitDy=0;entryX=0;entryY=0.5;entryDx=0;entryDy=0;" edge="1" parent="1" source="_WlvNIgQAxMGvLq_8ova-8" target="_WlvNIgQAxMGvLq_8ova-15">
          <mxGeometry relative="1" as="geometry" />
        </mxCell>
        <mxCell id="_WlvNIgQAxMGvLq_8ova-20" style="edgeStyle=orthogonalEdgeStyle;rounded=0;orthogonalLoop=1;jettySize=auto;html=1;exitX=0.75;exitY=1;exitDx=0;exitDy=0;entryX=0;entryY=0.5;entryDx=0;entryDy=0;" edge="1" parent="1" source="_WlvNIgQAxMGvLq_8ova-8" target="_WlvNIgQAxMGvLq_8ova-19">
          <mxGeometry relative="1" as="geometry" />
        </mxCell>
        <mxCell id="_WlvNIgQAxMGvLq_8ova-25" style="edgeStyle=orthogonalEdgeStyle;rounded=0;orthogonalLoop=1;jettySize=auto;html=1;exitX=0.25;exitY=1;exitDx=0;exitDy=0;entryX=0.5;entryY=0;entryDx=0;entryDy=0;" edge="1" parent="1" source="_WlvNIgQAxMGvLq_8ova-8" target="_WlvNIgQAxMGvLq_8ova-24">
          <mxGeometry relative="1" as="geometry" />
        </mxCell>
        <mxCell id="_WlvNIgQAxMGvLq_8ova-8" value=":Ventana de AnalisisSuelo" style="whiteSpace=wrap;html=1;" vertex="1" parent="1">
          <mxGeometry x="370" y="250" width="120" height="60" as="geometry" />
        </mxCell>
        <mxCell id="_WlvNIgQAxMGvLq_8ova-9" value="1. Identificar AnalisisSuelo" style="text;html=1;align=center;verticalAlign=middle;resizable=0;points=[];autosize=1;strokeColor=none;fillColor=none;" vertex="1" parent="1">
          <mxGeometry x="140" y="280" width="160" height="30" as="geometry" />
        </mxCell>
        <mxCell id="_WlvNIgQAxMGvLq_8ova-10" value=":Identificador" style="whiteSpace=wrap;html=1;" vertex="1" parent="1">
          <mxGeometry x="370" y="60" width="120" height="60" as="geometry" />
        </mxCell>
        <mxCell id="_WlvNIgQAxMGvLq_8ova-12" value="2. Encontrar (string)&amp;nbsp;" style="text;html=1;align=center;verticalAlign=middle;resizable=0;points=[];autosize=1;strokeColor=none;fillColor=none;" vertex="1" parent="1">
          <mxGeometry x="284" y="160" width="130" height="30" as="geometry" />
        </mxCell>
        <mxCell id="_WlvNIgQAxMGvLq_8ova-13" value="3. Encontrar TipoAnalisisSuelo" style="text;html=1;align=center;verticalAlign=middle;resizable=0;points=[];autosize=1;strokeColor=none;fillColor=none;" vertex="1" parent="1">
          <mxGeometry x="140" y="300" width="190" height="30" as="geometry" />
        </mxCell>
        <mxCell id="_WlvNIgQAxMGvLq_8ova-15" value=":TipoAnalisisSuelo" style="whiteSpace=wrap;html=1;" vertex="1" parent="1">
          <mxGeometry x="800" y="145" width="180" height="60" as="geometry" />
        </mxCell>
        <mxCell id="_WlvNIgQAxMGvLq_8ova-17" value="4. Encontrar Tipos de analisis de suelo&amp;nbsp;" style="text;html=1;align=center;verticalAlign=middle;resizable=0;points=[];autosize=1;strokeColor=none;fillColor=none;" vertex="1" parent="1">
          <mxGeometry x="530" y="145" width="230" height="30" as="geometry" />
        </mxCell>
        <mxCell id="_WlvNIgQAxMGvLq_8ova-18" value="5. Encontrar Suelo" style="text;html=1;align=center;verticalAlign=middle;resizable=0;points=[];autosize=1;strokeColor=none;fillColor=none;" vertex="1" parent="1">
          <mxGeometry x="150" y="320" width="120" height="30" as="geometry" />
        </mxCell>
        <mxCell id="_WlvNIgQAxMGvLq_8ova-19" value=":Información del Suelo" style="whiteSpace=wrap;html=1;" vertex="1" parent="1">
          <mxGeometry x="820" y="350" width="140" height="60" as="geometry" />
        </mxCell>
        <mxCell id="_WlvNIgQAxMGvLq_8ova-22" value="6. Encontrar (String)" style="text;html=1;align=center;verticalAlign=middle;resizable=0;points=[];autosize=1;strokeColor=none;fillColor=none;" vertex="1" parent="1">
          <mxGeometry x="560" y="390" width="130" height="30" as="geometry" />
        </mxCell>
        <mxCell id="_WlvNIgQAxMGvLq_8ova-24" value=":Fecha" style="whiteSpace=wrap;html=1;" vertex="1" parent="1">
          <mxGeometry x="340" y="500" width="120" height="60" as="geometry" />
        </mxCell>
        <mxCell id="_WlvNIgQAxMGvLq_8ova-26" value="7. Generar (Se genera la fecha con el formato&amp;nbsp;&lt;br&gt;AAAA/MM/DD )" style="text;html=1;align=center;verticalAlign=middle;resizable=0;points=[];autosize=1;strokeColor=none;fillColor=none;" vertex="1" parent="1">
          <mxGeometry x="120" y="420" width="270" height="40" as="geometry" />
        </mxCell>
      </root>
    </mxGraphModel>
  </diagram>
</mxfile>
